# This file uses centimeters as units for non-parametric coordinates.

mtllib cube.mtl
g default
v -500.0 -500.0 -500.0
v 500.0 -500.0 -500.0
v 500.0 500.0 -500.0
v -500.0 500.0 -500.0
v -500.0 -500.0 500.0
v 500.0 -500.0 500.0
v 500.0 500.0 500.0
v -500.0 500.0 500.0
vt 0.00001 0.33333
vt 0.00001 0.66666
vt 0.25 0.00001
vt 0.25 0.33333
vt 0.25 0.66666
vt 0.25 0.99999
vt 0.5 0.00001
vt 0.5 0.33333
vt 0.5 0.66666
vt 0.5 0.999999
vt 0.75 0.33333
vt 0.75 0.66666
vt 0.99999 0.33333
vt 0.99999 0.66666
vn 0.000000 0.000000 1.000000
vn 0.000000 1.000000 0.000000
vn 1.000000 0.000000 0.000000
vn -1.000000 0.000000 0.000000
vn 0.000000 -1.000000 0.000000
vn 0.000000 0.000000 -1.000000
s 1
g pCube1
usemtl file1SG
# back bottom
f 1/4/1 2/8/1 4/5/1
# back top
f 4/5/1 2/8/1 3/9/1
s 2
# bottom
f 1/4/2 5/3/2 2/8/2
f 2/8/2 5/3/2 6/7/2
s 3
# left
f 1/4/3 4/5/3 8/2/3
f 1/4/3 8/2/3 5/1/3
s 4
# right
f 3/9/4 2/8/4 7/12/4
f 6/11/4 7/12/4 2/8/4
s 5
# top
f 4/5/5 3/9/5 8/6/5
f 3/9/5 7/10/5 8/6/5
s 6
# forward
f 5/13/6 8/14/6 6/11/6
f 6/11/6 8/14/6 7/12/6